<?xml version="1.0" standalone="no"?>
<!DOCTYPE svg PUBLIC "-//W3C//DTD SVG 20010904//EN"
 "http://www.w3.org/TR/2001/REC-SVG-20010904/DTD/svg10.dtd">
<svg version="1.0" xmlns="http://www.w3.org/2000/svg"
 width="500.000000pt" height="500.000000pt" viewBox="0 0 500.000000 500.000000"
 preserveAspectRatio="xMidYMid meet">

<g transform="translate(0.000000,500.000000) scale(0.100000,-0.100000)"
fill="#000000" stroke="none">
<path d="M2420 3753 c-343 -24 -660 -200 -835 -463 -88 -133 -155 -332 -155
-466 0 -92 -103 -84 1071 -84 792 0 1038 3 1047 12 27 27 3 233 -39 342 -150
385 -517 639 -954 659 -49 2 -110 2 -135 0z m290 -129 c291 -60 539 -244 661
-489 39 -80 79 -214 79 -267 l0 -28 -952 2 -953 3 3 50 c4 67 52 207 97 283
145 249 415 419 730 461 87 12 235 5 335 -15z"/>
<path d="M2045 3487 c-96 -52 -156 -96 -225 -167 -76 -78 -125 -167 -142 -259
-12 -61 -11 -64 11 -82 13 -11 29 -19 37 -19 25 0 51 36 58 80 19 118 139 256
297 340 72 39 84 49 87 73 4 32 -21 67 -47 67 -9 0 -43 -15 -76 -33z"/>
<path d="M1625 2522 c-104 -54 -131 -72 -133 -90 -4 -27 23 -62 48 -62 10 0
68 24 130 54 l112 54 54 -24 c30 -13 81 -38 114 -54 33 -17 66 -30 73 -30 8 0
63 23 123 52 59 28 113 51 120 51 7 0 63 -24 124 -53 126 -61 101 -62 261 13
l97 45 112 -54 c62 -30 118 -54 125 -54 7 0 65 25 128 54 l116 55 111 -55 c61
-29 119 -54 129 -54 26 0 53 34 49 62 -2 18 -29 36 -133 90 -71 37 -142 67
-158 68 -15 0 -72 -22 -127 -50 -55 -27 -107 -50 -115 -50 -8 0 -60 23 -115
50 -55 28 -111 50 -125 50 -14 0 -70 -22 -125 -50 -55 -27 -107 -50 -115 -50
-8 0 -60 23 -115 50 -55 28 -111 50 -125 50 -14 0 -70 -22 -125 -50 -55 -27
-107 -50 -115 -50 -8 0 -60 23 -115 50 -55 28 -112 50 -127 50 -16 -1 -86 -31
-158 -68z"/>
<path d="M1498 2225 c-8 -19 -8 -31 0 -50 l12 -25 978 0 c936 0 980 1 995 18
22 24 21 45 -1 65 -17 16 -100 17 -996 17 l-976 0 -12 -25z"/>
<path d="M1507 1992 c-22 -24 -21 -55 1 -75 24 -22 114 -23 132 -2 18 22 15
66 -6 82 -27 20 -107 17 -127 -5z"/>
<path d="M1730 1990 c-24 -24 -25 -38 -4 -68 13 -20 24 -22 93 -22 84 0 111
14 111 57 0 38 -31 53 -108 53 -59 0 -76 -4 -92 -20z"/>
<path d="M2008 1999 c-25 -14 -24 -75 1 -89 11 -5 50 -10 86 -10 82 0 105 11
105 50 0 47 -22 60 -103 60 -40 0 -80 -5 -89 -11z"/>
<path d="M2277 1992 c-22 -24 -21 -55 1 -75 14 -13 38 -17 95 -17 67 0 78 3
91 22 21 30 20 44 -4 68 -28 28 -158 29 -183 2z"/>
<path d="M2550 1990 c-24 -24 -25 -38 -4 -68 13 -20 24 -22 93 -22 84 0 111
14 111 57 0 38 -31 53 -108 53 -59 0 -76 -4 -92 -20z"/>
<path d="M2827 1992 c-21 -23 -22 -56 -1 -76 11 -12 35 -16 85 -16 89 0 109
10 109 55 0 45 -20 55 -108 55 -54 0 -72 -4 -85 -18z"/>
<path d="M3100 1990 c-25 -25 -26 -52 -2 -73 28 -25 163 -24 185 1 23 26 21
58 -5 76 -35 25 -152 22 -178 -4z"/>
<path d="M3378 1999 c-25 -14 -24 -75 1 -89 33 -17 106 -12 124 8 22 24 21 55
-1 75 -21 19 -96 23 -124 6z"/>
<path d="M1582 1777 c-54 -20 -103 -67 -129 -124 -23 -50 -25 -64 -22 -161 4
-95 7 -112 32 -154 15 -26 44 -59 65 -73 l37 -25 936 0 935 0 43 36 c69 59 81
94 81 231 0 109 -2 122 -28 168 -18 34 -42 59 -76 80 l-49 30 -896 2 c-673 1
-904 -1 -929 -10z m1807 -110 c47 -24 66 -62 69 -146 5 -93 -12 -142 -60 -171
-32 -20 -48 -20 -896 -20 -958 0 -914 -3 -946 65 -21 44 -22 185 -1 225 32 62
-13 59 940 59 671 1 875 -2 894 -12z"/>
</g>
</svg>
